# xmcd
# 
# Track frame offsets:
#     150
#     13716
#     26696
#     54402
#     70158
#     82013
#     97031
#     115417
#     132410
#     148988
#     168624
# 
# Disc length: 2400
# 
# Revision: 0
# Processed by: cddbd v1.5.1PL2 Copyright (c) Steve Scherf et al.
# Submitted via: BonkEnc v1.0beta4
# 
DISCID=a1095e0b
DTITLE=Gary Allen - Mix 2
DYEAR=0
DGENRE=Country
TTITLE0=Guys Like Me
TTITLE1=I Can Love You
TTITLE2=Putting My Misery On Display
TTITLE3=Man Of Me
TTITLE4=Learning To Live With Me
TTITLE5=I'm The One
TTITLE6=I Just Got Back From Hell
TTITLE7=No Damn Good
TTITLE8=What I'd Say
TTITLE9=The One
TTITLE10=The Devil's Candy
EXTD=
EXTT0=
EXTT1=
EXTT2=
EXTT3=
EXTT4=
EXTT5=
EXTT6=
EXTT7=
EXTT8=
EXTT9=
EXTT10=
PLAYORDER=
